<?xml version="1.0" encoding="UTF-8"?>
<svg version="1.1" xmlns="http://www.w3.org/2000/svg" width="500" height="500">
<path d="M0 0 C165 0 330 0 500 0 C500 165 500 330 500 500 C335 500 170 500 0 500 C0 335 0 170 0 0 Z " fill="#5271FF" transform="translate(0,0)"/>
<path d="M0 0 C0.66 0 1.32 0 2 0 C2.40613525 0.7120459 2.81227051 1.4240918 3.23071289 2.15771484 C12.49029763 18.38761908 21.78775023 34.59480146 31.13671875 50.7734375 C33.0203505 54.03524007 34.90122321 57.29861844 36.78125 60.5625 C42.82747312 71.05738916 48.88963481 81.54230539 55 92 C61.74701194 103.54729516 68.43339318 115.12902027 75.10888672 126.71777344 C78.23680148 132.14659942 81.36858448 137.57319281 84.5 143 C85.75001879 145.16665583 87.00001878 147.3333225 88.25 149.5 C88.86875 150.5725 89.4875 151.645 90.125 152.75 C125.75 214.5 125.75 214.5 127.62524414 217.75048828 C128.87435518 219.91557071 130.12354129 222.08060982 131.37280273 224.24560547 C134.51202309 229.68615706 137.64990563 235.12747216 140.78515625 240.5703125 C146.83055159 251.06232094 152.89110219 261.54481676 159 272 C165.74701194 283.54729516 172.43339318 295.12902027 179.10888672 306.71777344 C182.23680148 312.14659942 185.36858448 317.57319281 188.5 323 C189.75001879 325.16665583 191.00001878 327.3333225 192.25 329.5 C192.86875 330.5725 193.4875 331.645 194.125 332.75 C204.4375 350.625 204.4375 350.625 214.75 368.5 C215.36987793 369.57427246 215.98975586 370.64854492 216.62841797 371.75537109 C217.86766466 373.90376512 219.10628036 376.05252325 220.34423828 378.20166016 C223.27497632 383.28773917 226.21211416 388.36980229 229.17169189 393.43914795 C230.57178169 395.8381957 231.96828095 398.2393241 233.36450195 400.640625 C234.35343237 402.33798226 235.34755838 404.03230902 236.34179688 405.7265625 C236.93798828 406.75265625 237.53417969 407.77875 238.1484375 408.8359375 C238.67614746 409.73876465 239.20385742 410.6415918 239.74755859 411.57177734 C241 414 241 414 242 418 C82.94 418 -76.12 418 -240 418 C-238.57181199 413.71543596 -237.48701477 410.8089992 -235.26953125 407.078125 C-234.44787476 405.68424561 -234.44787476 405.68424561 -233.60961914 404.26220703 C-233.01656982 403.26817871 -232.42352051 402.27415039 -231.8125 401.25 C-230.53580222 399.08632451 -229.25978329 396.92224834 -227.984375 394.7578125 C-227.32501953 393.64180664 -226.66566406 392.52580078 -225.98632812 391.37597656 C-222.81074644 385.9787367 -219.6862344 380.55236 -216.5625 375.125 C-215.30341652 372.94008624 -214.04430177 370.75519051 -212.78515625 368.5703125 C-211.84760498 366.94270996 -211.84760498 366.94270996 -210.89111328 365.28222656 C-207.76319852 359.85340058 -204.63141552 354.42680719 -201.5 349 C-200.24998121 346.83334417 -198.99998122 344.6666775 -197.75 342.5 C-195.25 338.16666667 -192.75 333.83333333 -190.25 329.5 C-189.63116943 328.42733887 -189.01233887 327.35467773 -188.37475586 326.24951172 C-187.12564482 324.08442929 -185.87645871 321.91939018 -184.62719727 319.75439453 C-181.48797691 314.31384294 -178.35009437 308.87252784 -175.21484375 303.4296875 C-168.59777108 291.9455118 -161.95366023 280.47803106 -155.26708984 269.03417969 C-149.10080946 258.47379718 -142.9950405 247.87873234 -136.89111328 237.28222656 C-133.76319852 231.85340058 -130.63141552 226.42680719 -127.5 221 C-126.24998121 218.83334417 -124.99998122 216.6666775 -123.75 214.5 C-121.25 210.16666667 -118.75 205.83333333 -116.25 201.5 C-115.63116943 200.42733887 -115.01233887 199.35467773 -114.37475586 198.24951172 C-113.12564482 196.08442929 -111.87645871 193.91939018 -110.62719727 191.75439453 C-107.48797691 186.31384294 -104.35009437 180.87252784 -101.21484375 175.4296875 C-94.59777108 163.9455118 -87.95366023 152.47803106 -81.26708984 141.03417969 C-75.10080946 130.47379718 -68.9950405 119.87873234 -62.89111328 109.28222656 C-59.76319852 103.85340058 -56.63141552 98.42680719 -53.5 93 C-52.24998121 90.83334417 -50.99998122 88.6666775 -49.75 86.5 C-27.25 47.5 -27.25 47.5 -25.37158203 44.24414062 C-24.13289998 42.09704864 -22.8942921 39.94991386 -21.65576172 37.80273438 C-18.7146665 32.70411191 -15.77278587 27.60594704 -12.82830811 22.50927734 C-11.43041399 20.08952335 -10.03293911 17.66952737 -8.63549805 15.24951172 C-7.64347676 13.53198948 -6.65084571 11.81481948 -5.65820312 10.09765625 C-5.06201172 9.06511719 -4.46582031 8.03257813 -3.8515625 6.96875 C-3.32385254 6.05544922 -2.79614258 5.14214844 -2.25244141 4.20117188 C-1.46663489 2.82011309 -0.71060752 1.42121505 0 0 Z " fill="#758DFF" transform="translate(249,80)"/>
<path d="M0 0 C0.66 0 1.32 0 2 0 C2.40613525 0.7120459 2.81227051 1.4240918 3.23071289 2.15771484 C12.49029763 18.38761908 21.78775023 34.59480146 31.13671875 50.7734375 C33.0203505 54.03524007 34.90122321 57.29861844 36.78125 60.5625 C42.82747312 71.05738916 48.88963481 81.54230539 55 92 C61.74701194 103.54729516 68.43339318 115.12902027 75.10888672 126.71777344 C78.23680148 132.14659942 81.36858448 137.57319281 84.5 143 C85.75001879 145.16665583 87.00001878 147.3333225 88.25 149.5 C88.86875 150.5725 89.4875 151.645 90.125 152.75 C97 164.66666667 103.875 176.58333333 110.75 188.5 C111.36931396 189.5734668 111.98862793 190.64693359 112.62670898 191.75292969 C113.87104998 193.90980903 115.11535364 196.06670992 116.35961914 198.22363281 C120.23312689 204.93818667 124.10804201 211.65192613 127.98413086 218.36499023 C129.87668335 221.64461032 131.76658172 224.92574875 133.65625 228.20703125 C135.66386669 231.69153487 137.68146879 235.16948221 139.71875 238.63671875 C140.10297119 239.29510742 140.48719238 239.95349609 140.88305664 240.63183594 C141.84353785 242.27659607 142.81011352 243.91779342 143.77734375 245.55859375 C145 248 145 248 145 251 C49.63 251 -45.74 251 -144 251 C-140.045551 243.091102 -136.05604004 235.45420776 -131.5625 227.875 C-130.32623235 225.77248256 -129.09057679 223.66960511 -127.85546875 221.56640625 C-127.2217334 220.48891113 -126.58799805 219.41141602 -125.93505859 218.30126953 C-122.72223632 212.82009583 -119.547608 207.31701977 -116.375 201.8125 C-115.74609863 200.72195313 -115.11719727 199.63140625 -114.46923828 198.5078125 C-110.60805048 191.80666038 -106.76708673 185.0942481 -102.9375 178.375 C-98.1523459 169.98072465 -93.29586873 161.62960465 -88.41943359 153.28808594 C-82.2001045 142.64434755 -76.04432083 131.96428369 -69.89111328 121.28222656 C-66.13971976 114.77128743 -62.38309006 108.26336806 -58.62744141 101.75488281 C-55.48817754 96.31414664 -52.35018503 90.87268523 -49.21484375 85.4296875 C-43.16944798 74.93767832 -37.10879718 64.45524255 -31 54 C-20.53054065 36.07825939 -10.10568188 18.12997671 0 0 Z " fill="#96A9FF" transform="translate(249,80)"/>
<path d="M0 0 C2.30552433 2.95003786 4.22399315 5.98545286 6.08203125 9.234375 C6.67693359 10.27078125 7.27183594 11.3071875 7.88476562 12.375 C8.52091797 13.48875 9.15707031 14.6025 9.8125 15.75 C11.1719515 18.12049585 12.53331061 20.48989473 13.89453125 22.859375 C14.23936554 23.46019897 14.58419983 24.06102295 14.93948364 24.68005371 C18.26447105 30.47005909 21.62870049 36.23685119 25 42 C28.73137241 48.38172303 32.45028992 54.77024912 36.140625 61.17578125 C36.4850061 61.77349335 36.82938721 62.37120544 37.1842041 62.98703003 C38.85891632 65.89465649 40.53188674 68.80326482 42.203125 71.71289062 C42.80125 72.75251953 43.399375 73.79214844 44.015625 74.86328125 C44.54446289 75.78407471 45.07330078 76.70486816 45.61816406 77.65356445 C46.68824811 79.47062767 47.83027964 81.24541946 49 83 C49 83.99 49 84.98 49 86 C-78.38 86 -205.76 86 -337 86 C-335.52567141 81.57701424 -334.29659767 78.47409784 -332.015625 74.5703125 C-331.4175 73.54035156 -330.819375 72.51039063 -330.203125 71.44921875 C-329.55859375 70.35222656 -328.9140625 69.25523437 -328.25 68.125 C-327.57241378 66.96253256 -326.89533873 65.79976703 -326.21875 64.63671875 C-324.48455261 61.6585033 -322.74407437 58.68401375 -321.00170898 55.71057129 C-319.4718065 53.09802882 -317.94688494 50.48258809 -316.421875 47.8671875 C-314.71581079 44.94153789 -313.00940336 42.01609611 -311.30102539 39.09179688 C-306.74031089 31.28268255 -302.20803895 23.45741253 -297.6875 15.625 C-297.03458984 14.49449219 -296.38167969 13.36398437 -295.70898438 12.19921875 C-295.10763672 11.15636719 -294.50628906 10.11351562 -293.88671875 9.0390625 C-293.35264404 8.11303223 -292.81856934 7.18700195 -292.26831055 6.23291016 C-291.4776882 4.8409887 -290.71589511 3.43179021 -290 2 C-194.3 2 -98.6 2 0 2 C0 1.34 0 0.68 0 0 Z " fill="#859BFF" transform="translate(394,329)"/>
<path d="M0 0 C0.66 0 1.32 0 2 0 C2.40613525 0.7120459 2.81227051 1.4240918 3.23071289 2.15771484 C12.49029763 18.38761908 21.78775023 34.59480146 31.13671875 50.7734375 C33.0203505 54.03524007 34.90122321 57.29861844 36.78125 60.5625 C42.82747312 71.05738916 48.88963481 81.54230539 55 92 C61.09651661 102.43399321 67.14586174 112.89458296 73.17578125 123.3671875 C75.46771358 127.34682085 77.76570706 131.32279314 80.07307434 135.29348755 C81.09789083 137.05727036 82.12149926 138.82174894 83.14477539 140.58642578 C84.42417071 142.79188817 85.70575641 144.99608202 86.98999023 147.19873047 C87.57337158 148.20564941 88.15675293 149.21256836 88.7578125 150.25 C89.2645752 151.12140625 89.77133789 151.9928125 90.29345703 152.890625 C92.65507754 157.1935719 94.80488709 161.60977417 97 166 C33.97 166 -29.06 166 -94 166 C-93.02375781 161.11878906 -91.41525669 157.94832275 -88.875 153.8125 C-87.95830195 152.28725898 -87.0430296 150.76116051 -86.12890625 149.234375 C-85.62762207 148.39970703 -85.12633789 147.56503906 -84.60986328 146.70507812 C-81.62429981 141.68838974 -78.72321379 136.62285554 -75.8125 131.5625 C-74.51697859 129.31377241 -73.22140498 127.06507489 -71.92578125 124.81640625 C-71.27561035 123.68734863 -70.62543945 122.55829102 -69.95556641 121.39501953 C-66.80667949 115.92830025 -63.6532151 110.46422354 -60.5 105 C-56.73634635 98.47767561 -52.97355377 91.95486237 -49.21484375 85.4296875 C-43.16944798 74.93767832 -37.10879718 64.45524255 -31 54 C-20.53054065 36.07825939 -10.10568188 18.12997671 0 0 Z " fill="#B9C5FF" transform="translate(249,80)"/>
<path d="M0 0 C0.66 0 1.32 0 2 0 C2.60920288 1.06806885 2.60920288 1.06806885 3.23071289 2.15771484 C10.64959013 15.1612858 18.07796937 28.15906622 25.5625 41.125 C26.16602295 42.17099365 26.7695459 43.2169873 27.39135742 44.29467773 C30.3107723 49.35181894 33.23456627 54.40636353 36.16716003 59.45587158 C37.56736678 61.86760138 38.96554105 64.28050625 40.36349487 66.69354248 C41.35432242 68.40184934 42.34815029 70.10841488 43.34204102 71.81494141 C43.93815186 72.84409668 44.5342627 73.87325195 45.1484375 74.93359375 C45.67614746 75.84165771 46.20385742 76.74972168 46.74755859 77.68530273 C48 80 48 80 49 83 C17.32 83 -14.36 83 -47 83 C-40.17527603 69.35055205 -40.17527603 69.35055205 -36.5625 63.375 C-35.6915806 61.91343182 -34.82187049 60.45114263 -33.953125 58.98828125 C-33.48326172 58.19760254 -33.01339844 57.40692383 -32.52929688 56.59228516 C-29.58647529 51.60395828 -26.70261409 46.58148444 -23.8125 41.5625 C-22.87168579 39.92933838 -22.87168579 39.92933838 -21.91186523 38.26318359 C-20.61344571 36.00904459 -19.31518991 33.75481127 -18.01708984 31.50048828 C-15.92714027 27.87229699 -13.8329592 24.24655664 -11.73828125 20.62109375 C-11.04255048 19.41659185 -10.34683092 18.21208348 -9.65112305 17.00756836 C-8.32103455 14.70471967 -6.99037862 12.40220197 -5.65942383 10.09985352 C-5.06282959 9.06658936 -4.46623535 8.0333252 -3.8515625 6.96875 C-3.32385254 6.05544922 -2.79614258 5.14214844 -2.25244141 4.20117188 C-1.46663489 2.82011309 -0.71060752 1.42121505 0 0 Z " fill="#DBE2FF" transform="translate(249,80)"/>
</svg>
